<svg id="Layer_1" data-name="Layer 1" xmlns="http://www.w3.org/2000/svg" xmlns:xlink="http://www.w3.org/1999/xlink" viewBox="0 0 137.06 30.33"><defs><style>.cls-1{fill:none;}.cls-2{fill:#fff;}.cls-3{clip-path:url(#clip-path);}</style><clipPath id="clip-path" transform="translate(-25.82 -30.07)"><rect class="cls-1" width="200" height="120"/></clipPath></defs><title>logo_horizontal_branco</title><path class="cls-2" d="M51.08,60.07H25.82V32.44h6.32v3.95H44.77V32.44h6.32ZM27.4,58.49H49.5V34H46.34V38H30.56V34H27.4Z" transform="translate(-25.82 -30.07)"/><rect class="cls-2" x="8.53" width="8.21" height="4.11"/><rect class="cls-2" x="5.53" y="11.84" width="14.21" height="1.58"/><rect class="cls-2" x="5.53" y="15.79" width="14.21" height="1.58"/><rect class="cls-2" x="5.53" y="19.74" width="14.21" height="1.58"/><rect class="cls-2" x="5.53" y="23.68" width="6.32" height="1.58"/><g class="cls-3"><path class="cls-2" d="M59.79,44.35h7.51a.49.49,0,0,1,.56.56v1.22a.49.49,0,0,1-.56.56H59.79v8a.49.49,0,0,1-.56.56H57.68a.49.49,0,0,1-.56-.56V36.16a.49.49,0,0,1,.56-.56H68.6a.49.49,0,0,1,.56.56v1.22a.49.49,0,0,1-.56.56H59.79Z" transform="translate(-25.82 -30.07)"/><rect class="cls-2" x="45.93" y="4.46" width="2.46" height="20.77" rx="0.56" ry="0.56"/><path class="cls-2" d="M88.45,40.61a.49.49,0,0,1,.56.56v14c0,3.29-2.11,5.25-5.58,5.25a7,7,0,0,1-4.81-1.63.54.54,0,0,1-.09-.8l.56-.8c.21-.33.47-.36.77-.09a5.2,5.2,0,0,0,3.41,1.19A2.94,2.94,0,0,0,86.55,55V53.72h-.06a4,4,0,0,1-3.44,1.45c-3.29,0-5-1.9-5-5.49V41.17a.49.49,0,0,1,.56-.56h1.33a.49.49,0,0,1,.56.56v8.28c0,2.46,1,3.59,3,3.59s3-1.19,3-3.59V41.17a.49.49,0,0,1,.56-.56Z" transform="translate(-25.82 -30.07)"/><path class="cls-2" d="M96,44.17h7.8a.49.49,0,0,1,.56.56v1.22a.49.49,0,0,1-.56.56H96V53h9.11a.49.49,0,0,1,.56.56v1.22a.49.49,0,0,1-.56.56H93.92a.49.49,0,0,1-.56-.56V36.16a.49.49,0,0,1,.56-.56h11.21a.49.49,0,0,1,.56.56v1.22a.49.49,0,0,1-.56.56H96Z" transform="translate(-25.82 -30.07)"/><path class="cls-2" d="M119,34.52a.49.49,0,0,1,.56.56V50c0,3.65-2,5.61-5.61,5.61s-5.58-2-5.58-5.61V45.86c0-3.65,1.84-5.61,5.19-5.61a4.08,4.08,0,0,1,3.47,1.48h.06V35.09a.49.49,0,0,1,.56-.56Zm-1.9,11.6c0-2.49-1-3.74-3.15-3.74s-3.11,1.16-3.11,3.74v3.68c0,2.52,1,3.71,3.11,3.71s3.15-1.19,3.15-3.71Z" transform="translate(-25.82 -30.07)"/><path class="cls-2" d="M123.12,36.34a1.49,1.49,0,0,1,1.54-1.57,1.51,1.51,0,0,1,1.57,1.57,1.56,1.56,0,0,1-3.12,0m.89,19a.49.49,0,0,1-.56-.56V41.17a.49.49,0,0,1,.56-.56h1.33a.49.49,0,0,1,.56.56V54.73a.49.49,0,0,1-.56.56Z" transform="translate(-25.82 -30.07)"/><path class="cls-2" d="M138,54.38a.53.53,0,0,1-.27.71,5.32,5.32,0,0,1-2.61.56c-3.06,0-4.57-1.57-4.57-4.69V42.74H129a.49.49,0,0,1-.57-.56v-1a.49.49,0,0,1,.57-.56h1.54V37.25a.49.49,0,0,1,.56-.56h1.34a.49.49,0,0,1,.56.56v3.35h4a.49.49,0,0,1,.56.56v1a.49.49,0,0,1-.56.56h-4V50.9c0,1.75.8,2.61,2.37,2.61a3,3,0,0,0,1.48-.36c.39-.21.65-.15.77.24Z" transform="translate(-25.82 -30.07)"/><path class="cls-2" d="M151.07,50.07c0,3.65-2,5.58-5.61,5.58s-5.58-1.93-5.58-5.58V45.86c0-3.65,1.93-5.61,5.58-5.61s5.61,2,5.61,5.61Zm-2.46-3.95c0-2.58-1-3.74-3.15-3.74s-3.11,1.16-3.11,3.74v3.68c0,2.52,1,3.71,3.11,3.71s3.15-1.19,3.15-3.71Z" transform="translate(-25.82 -30.07)"/><path class="cls-2" d="M154.37,45.62c0-3.59,1.63-5.37,4.92-5.37a5.8,5.8,0,0,1,3.29.89.51.51,0,0,1,.18.8l-.5.86a.51.51,0,0,1-.8.15,3.62,3.62,0,0,0-1.93-.56c-1.81,0-2.7,1.1-2.7,3.26v9.08a.49.49,0,0,1-.56.56h-1.33a.49.49,0,0,1-.56-.56Z" transform="translate(-25.82 -30.07)"/></g></svg>