<svg id="Layer_1" data-name="Layer 1" xmlns="http://www.w3.org/2000/svg" xmlns:xlink="http://www.w3.org/1999/xlink" viewBox="0 0 141.52 35.63"><defs><style>.cls-1{fill:none;}.cls-2{fill:#388fec;}.cls-3{clip-path:url(#clip-path);}</style><clipPath id="clip-path" transform="translate(-47.95 -66.76)"><rect class="cls-1" width="200" height="120"/></clipPath></defs><title>logo_horizontal</title><path class="cls-2" d="M78,102.38H48V69.57h7.5v4.69h15V69.57H78Zm-28.13-1.87H76.08V71.45H72.33v4.69H53.58V71.45H49.83Z" transform="translate(-47.95 -66.76)"/><rect class="cls-2" x="10.12" width="9.75" height="4.87"/><rect class="cls-2" x="6.56" y="14.06" width="16.88" height="1.87"/><rect class="cls-2" x="6.56" y="18.75" width="16.88" height="1.88"/><rect class="cls-2" x="6.56" y="23.44" width="16.88" height="1.88"/><rect class="cls-2" x="6.56" y="28.12" width="7.5" height="1.88"/><g class="cls-3"><path class="cls-2" d="M86.37,84.28h7.51a.49.49,0,0,1,.56.56v1.22a.49.49,0,0,1-.56.56H86.37v8a.49.49,0,0,1-.56.56H84.27a.49.49,0,0,1-.56-.56V76.1a.49.49,0,0,1,.56-.56H95.19a.49.49,0,0,1,.56.56v1.22a.49.49,0,0,1-.56.56H86.37Z" transform="translate(-47.95 -66.76)"/><rect class="cls-2" x="50.38" y="7.71" width="2.46" height="20.77" rx="0.56" ry="0.56"/><path class="cls-2" d="M115,80.55a.49.49,0,0,1,.56.56v14c0,3.29-2.11,5.25-5.58,5.25a7,7,0,0,1-4.81-1.63.54.54,0,0,1-.09-.8l.56-.8c.21-.33.47-.36.77-.09a5.2,5.2,0,0,0,3.41,1.19,2.94,2.94,0,0,0,3.26-3.29V93.66h-.06a4,4,0,0,1-3.44,1.45c-3.29,0-5-1.9-5-5.49V81.11a.49.49,0,0,1,.56-.56h1.33a.49.49,0,0,1,.56.56v8.28c0,2.46,1,3.59,3,3.59s3-1.19,3-3.59V81.11a.49.49,0,0,1,.56-.56Z" transform="translate(-47.95 -66.76)"/><path class="cls-2" d="M122.61,84.11h7.8a.49.49,0,0,1,.56.56v1.22a.49.49,0,0,1-.56.56h-7.8v6.44h9.11a.49.49,0,0,1,.56.56v1.22a.49.49,0,0,1-.56.56H120.5a.49.49,0,0,1-.56-.56V76.1a.49.49,0,0,1,.56-.56h11.21a.49.49,0,0,1,.56.56v1.22a.49.49,0,0,1-.56.56h-9.11Z" transform="translate(-47.95 -66.76)"/><path class="cls-2" d="M145.63,74.46a.49.49,0,0,1,.56.56V90c0,3.65-2,5.61-5.61,5.61S135,93.63,135,90V85.8c0-3.65,1.84-5.61,5.19-5.61a4.08,4.08,0,0,1,3.47,1.48h.06V75a.49.49,0,0,1,.56-.56Zm-1.9,11.6c0-2.49-1-3.74-3.15-3.74s-3.11,1.16-3.11,3.74v3.68c0,2.52,1,3.71,3.11,3.71s3.15-1.19,3.15-3.71Z" transform="translate(-47.95 -66.76)"/><path class="cls-2" d="M149.7,76.27a1.49,1.49,0,0,1,1.54-1.57,1.51,1.51,0,0,1,1.57,1.57,1.56,1.56,0,0,1-3.12,0m.89,19a.49.49,0,0,1-.56-.56V81.11a.49.49,0,0,1,.56-.56h1.33a.49.49,0,0,1,.56.56V94.67a.49.49,0,0,1-.56.56Z" transform="translate(-47.95 -66.76)"/><path class="cls-2" d="M164.57,94.31a.53.53,0,0,1-.27.71,5.32,5.32,0,0,1-2.61.56c-3.06,0-4.57-1.57-4.57-4.69V82.68h-1.54a.49.49,0,0,1-.57-.56v-1a.49.49,0,0,1,.57-.56h1.54V77.19a.49.49,0,0,1,.56-.56H159a.49.49,0,0,1,.56.56v3.35h4a.49.49,0,0,1,.56.56v1a.49.49,0,0,1-.56.56h-4v8.16c0,1.75.8,2.61,2.37,2.61a3,3,0,0,0,1.48-.36c.39-.21.65-.15.77.24Z" transform="translate(-47.95 -66.76)"/><path class="cls-2" d="M177.66,90c0,3.65-2,5.58-5.61,5.58s-5.58-1.93-5.58-5.58V85.8c0-3.65,1.93-5.61,5.58-5.61s5.61,2,5.61,5.61Zm-2.46-3.95c0-2.58-1-3.74-3.15-3.74s-3.11,1.16-3.11,3.74v3.68c0,2.52,1,3.71,3.11,3.71s3.15-1.19,3.15-3.71Z" transform="translate(-47.95 -66.76)"/><path class="cls-2" d="M181,85.56c0-3.59,1.63-5.37,4.92-5.37a5.8,5.8,0,0,1,3.29.89.51.51,0,0,1,.18.8l-.5.86a.51.51,0,0,1-.8.15,3.62,3.62,0,0,0-1.93-.56c-1.81,0-2.7,1.1-2.7,3.26v9.08a.49.49,0,0,1-.56.56h-1.33a.49.49,0,0,1-.56-.56Z" transform="translate(-47.95 -66.76)"/></g></svg>